<mxfile host="app.diagrams.net" modified="2022-03-16T10:10:46.635Z" agent="5.0 (Macintosh; Intel Mac OS X 10_15_7) AppleWebKit/537.36 (KHTML, like Gecko) Chrome/99.0.4844.51 Safari/537.36" etag="M2Bln3smI9mNQGrK1eWc" version="17.1.3" type="github">
  <diagram id="cpJ9dxBKwlVzvMs67Hhx" name="Page-1">
    <mxGraphModel dx="946" dy="2217" grid="1" gridSize="10" guides="1" tooltips="1" connect="1" arrows="1" fold="1" page="1" pageScale="1" pageWidth="827" pageHeight="1169" math="0" shadow="0">
      <root>
        <mxCell id="0" />
        <mxCell id="1" parent="0" />
        <mxCell id="1TXYfQNS1zfYl2YfCzJB-30" value="" style="rounded=0;whiteSpace=wrap;html=1;fontSize=18;fillColor=default;" parent="1" vertex="1">
          <mxGeometry x="120" y="240" width="920" height="520" as="geometry" />
        </mxCell>
        <mxCell id="1TXYfQNS1zfYl2YfCzJB-1" value="" style="endArrow=classic;html=1;rounded=0;strokeWidth=3;entryX=0.913;entryY=0.923;entryDx=0;entryDy=0;entryPerimeter=0;" parent="1" target="1TXYfQNS1zfYl2YfCzJB-30" edge="1">
          <mxGeometry width="50" height="50" relative="1" as="geometry">
            <mxPoint x="200" y="720" as="sourcePoint" />
            <mxPoint x="1181" y="720" as="targetPoint" />
          </mxGeometry>
        </mxCell>
        <mxCell id="1TXYfQNS1zfYl2YfCzJB-2" value="" style="endArrow=classic;html=1;rounded=0;strokeWidth=3;" parent="1" edge="1">
          <mxGeometry width="50" height="50" relative="1" as="geometry">
            <mxPoint x="200" y="720" as="sourcePoint" />
            <mxPoint x="200" y="320" as="targetPoint" />
          </mxGeometry>
        </mxCell>
        <mxCell id="1TXYfQNS1zfYl2YfCzJB-3" value="2021/1" style="text;html=1;strokeColor=none;fillColor=none;align=center;verticalAlign=middle;whiteSpace=wrap;rounded=0;" parent="1" vertex="1">
          <mxGeometry x="210" y="730" width="60" height="30" as="geometry" />
        </mxCell>
        <mxCell id="1TXYfQNS1zfYl2YfCzJB-4" value="2021/2" style="text;html=1;strokeColor=none;fillColor=none;align=center;verticalAlign=middle;whiteSpace=wrap;rounded=0;" parent="1" vertex="1">
          <mxGeometry x="290" y="730" width="60" height="30" as="geometry" />
        </mxCell>
        <mxCell id="1TXYfQNS1zfYl2YfCzJB-5" value="2021/3" style="text;html=1;strokeColor=none;fillColor=none;align=center;verticalAlign=middle;whiteSpace=wrap;rounded=0;" parent="1" vertex="1">
          <mxGeometry x="370" y="730" width="60" height="30" as="geometry" />
        </mxCell>
        <mxCell id="1TXYfQNS1zfYl2YfCzJB-6" value="2021/4" style="text;html=1;strokeColor=none;fillColor=none;align=center;verticalAlign=middle;whiteSpace=wrap;rounded=0;" parent="1" vertex="1">
          <mxGeometry x="450" y="730" width="60" height="30" as="geometry" />
        </mxCell>
        <mxCell id="1TXYfQNS1zfYl2YfCzJB-7" value="2021/5" style="text;html=1;strokeColor=none;fillColor=none;align=center;verticalAlign=middle;whiteSpace=wrap;rounded=0;" parent="1" vertex="1">
          <mxGeometry x="530" y="730" width="60" height="30" as="geometry" />
        </mxCell>
        <mxCell id="1TXYfQNS1zfYl2YfCzJB-8" value="2021/6" style="text;html=1;strokeColor=none;fillColor=none;align=center;verticalAlign=middle;whiteSpace=wrap;rounded=0;" parent="1" vertex="1">
          <mxGeometry x="610" y="730" width="60" height="30" as="geometry" />
        </mxCell>
        <mxCell id="1TXYfQNS1zfYl2YfCzJB-9" value="10万" style="text;html=1;strokeColor=none;fillColor=none;align=center;verticalAlign=middle;whiteSpace=wrap;rounded=0;" parent="1" vertex="1">
          <mxGeometry x="141" y="640" width="60" height="30" as="geometry" />
        </mxCell>
        <mxCell id="1TXYfQNS1zfYl2YfCzJB-10" value="20万" style="text;html=1;strokeColor=none;fillColor=none;align=center;verticalAlign=middle;whiteSpace=wrap;rounded=0;" parent="1" vertex="1">
          <mxGeometry x="141" y="560" width="60" height="30" as="geometry" />
        </mxCell>
        <mxCell id="1TXYfQNS1zfYl2YfCzJB-11" value="30万" style="text;html=1;strokeColor=none;fillColor=none;align=center;verticalAlign=middle;whiteSpace=wrap;rounded=0;" parent="1" vertex="1">
          <mxGeometry x="141" y="480" width="60" height="30" as="geometry" />
        </mxCell>
        <mxCell id="1TXYfQNS1zfYl2YfCzJB-12" value="40万" style="text;html=1;strokeColor=none;fillColor=none;align=center;verticalAlign=middle;whiteSpace=wrap;rounded=0;" parent="1" vertex="1">
          <mxGeometry x="141" y="400" width="60" height="30" as="geometry" />
        </mxCell>
        <mxCell id="1TXYfQNS1zfYl2YfCzJB-13" value="" style="endArrow=classic;html=1;rounded=0;strokeWidth=3;strokeColor=#6666FF;" parent="1" edge="1">
          <mxGeometry width="50" height="50" relative="1" as="geometry">
            <mxPoint x="240" y="560" as="sourcePoint" />
            <mxPoint x="961" y="560" as="targetPoint" />
          </mxGeometry>
        </mxCell>
        <mxCell id="1TXYfQNS1zfYl2YfCzJB-14" value="2021/7" style="text;html=1;strokeColor=none;fillColor=none;align=center;verticalAlign=middle;whiteSpace=wrap;rounded=0;" parent="1" vertex="1">
          <mxGeometry x="690" y="730" width="60" height="30" as="geometry" />
        </mxCell>
        <mxCell id="1TXYfQNS1zfYl2YfCzJB-16" value="" style="endArrow=classic;html=1;rounded=0;strokeColor=#82b366;strokeWidth=3;fillColor=#d5e8d4;" parent="1" edge="1">
          <mxGeometry width="50" height="50" relative="1" as="geometry">
            <mxPoint x="240" y="640" as="sourcePoint" />
            <mxPoint x="610" y="570" as="targetPoint" />
            <Array as="points">
              <mxPoint x="320" y="620" />
              <mxPoint x="400" y="600" />
              <mxPoint x="480" y="640" />
              <mxPoint x="560" y="590" />
            </Array>
          </mxGeometry>
        </mxCell>
        <mxCell id="1TXYfQNS1zfYl2YfCzJB-18" value="" style="endArrow=classic;html=1;rounded=0;strokeColor=#B20000;strokeWidth=3;fillColor=#e51400;" parent="1" edge="1">
          <mxGeometry width="50" height="50" relative="1" as="geometry">
            <mxPoint x="610" y="570" as="sourcePoint" />
            <mxPoint x="880" y="490" as="targetPoint" />
            <Array as="points">
              <mxPoint x="720" y="540" />
              <mxPoint x="800" y="520" />
            </Array>
          </mxGeometry>
        </mxCell>
        <mxCell id="1TXYfQNS1zfYl2YfCzJB-19" value="2021/8" style="text;html=1;strokeColor=none;fillColor=none;align=center;verticalAlign=middle;whiteSpace=wrap;rounded=0;" parent="1" vertex="1">
          <mxGeometry x="767" y="730" width="60" height="30" as="geometry" />
        </mxCell>
        <mxCell id="1TXYfQNS1zfYl2YfCzJB-20" value="2021/9" style="text;html=1;strokeColor=none;fillColor=none;align=center;verticalAlign=middle;whiteSpace=wrap;rounded=0;" parent="1" vertex="1">
          <mxGeometry x="850" y="730" width="60" height="30" as="geometry" />
        </mxCell>
        <mxCell id="1TXYfQNS1zfYl2YfCzJB-21" value="2021/10" style="text;html=1;strokeColor=none;fillColor=none;align=center;verticalAlign=middle;whiteSpace=wrap;rounded=0;" parent="1" vertex="1">
          <mxGeometry x="930" y="730" width="60" height="30" as="geometry" />
        </mxCell>
        <mxCell id="1TXYfQNS1zfYl2YfCzJB-22" value="&lt;font style=&quot;font-size: 18px&quot;&gt;超预算值80%告警&lt;/font&gt;" style="shape=callout;whiteSpace=wrap;html=1;perimeter=calloutPerimeter;position2=1;" parent="1" vertex="1">
          <mxGeometry x="440" y="470" width="150" height="80" as="geometry" />
        </mxCell>
        <mxCell id="1TXYfQNS1zfYl2YfCzJB-25" value="&lt;font style=&quot;font-size: 18px&quot;&gt;超预测值告警&lt;/font&gt;" style="shape=callout;whiteSpace=wrap;html=1;perimeter=calloutPerimeter;" parent="1" vertex="1">
          <mxGeometry x="660" y="420" width="120" height="80" as="geometry" />
        </mxCell>
        <mxCell id="1TXYfQNS1zfYl2YfCzJB-26" value="" style="ellipse;whiteSpace=wrap;html=1;aspect=fixed;fillColor=#e51400;opacity=50;fontColor=#ffffff;strokeColor=#B20000;" parent="1" vertex="1">
          <mxGeometry x="702.5" y="520" width="35" height="35" as="geometry" />
        </mxCell>
        <mxCell id="1TXYfQNS1zfYl2YfCzJB-27" value="" style="endArrow=none;dashed=1;html=1;rounded=0;fontSize=18;strokeColor=#6666FF;strokeWidth=3;startArrow=none;" parent="1" source="1TXYfQNS1zfYl2YfCzJB-23" edge="1">
          <mxGeometry width="50" height="50" relative="1" as="geometry">
            <mxPoint x="610" y="715" as="sourcePoint" />
            <mxPoint x="610" y="400" as="targetPoint" />
          </mxGeometry>
        </mxCell>
        <mxCell id="1TXYfQNS1zfYl2YfCzJB-28" value="&lt;font style=&quot;font-size: 18px&quot;&gt;当前时间&lt;/font&gt;" style="shape=callout;whiteSpace=wrap;html=1;perimeter=calloutPerimeter;" parent="1" vertex="1">
          <mxGeometry x="550" y="310" width="120" height="80" as="geometry" />
        </mxCell>
        <mxCell id="1TXYfQNS1zfYl2YfCzJB-23" value="" style="ellipse;whiteSpace=wrap;html=1;aspect=fixed;fillColor=#FFF719;opacity=50;" parent="1" vertex="1">
          <mxGeometry x="592.5" y="550" width="35" height="35" as="geometry" />
        </mxCell>
        <mxCell id="1TXYfQNS1zfYl2YfCzJB-29" value="" style="endArrow=none;dashed=1;html=1;rounded=0;fontSize=18;strokeColor=#6666FF;strokeWidth=3;" parent="1" target="1TXYfQNS1zfYl2YfCzJB-23" edge="1">
          <mxGeometry width="50" height="50" relative="1" as="geometry">
            <mxPoint x="610" y="715" as="sourcePoint" />
            <mxPoint x="610" y="400" as="targetPoint" />
          </mxGeometry>
        </mxCell>
        <mxCell id="zL9jQ1dmmv_QfP8523OB-1" value="" style="endArrow=classic;html=1;rounded=0;strokeWidth=3;strokeColor=#82b366;fillColor=#d5e8d4;" edge="1" parent="1">
          <mxGeometry width="50" height="50" relative="1" as="geometry">
            <mxPoint x="230" y="330" as="sourcePoint" />
            <mxPoint x="310" y="330" as="targetPoint" />
          </mxGeometry>
        </mxCell>
        <mxCell id="zL9jQ1dmmv_QfP8523OB-2" value="" style="endArrow=classic;html=1;rounded=0;strokeWidth=3;strokeColor=#B20000;fillColor=#e51400;" edge="1" parent="1">
          <mxGeometry width="50" height="50" relative="1" as="geometry">
            <mxPoint x="230" y="370" as="sourcePoint" />
            <mxPoint x="310" y="370" as="targetPoint" />
          </mxGeometry>
        </mxCell>
        <mxCell id="zL9jQ1dmmv_QfP8523OB-3" value="" style="endArrow=classic;html=1;rounded=0;strokeWidth=3;strokeColor=#6666FF;" edge="1" parent="1">
          <mxGeometry width="50" height="50" relative="1" as="geometry">
            <mxPoint x="230" y="290" as="sourcePoint" />
            <mxPoint x="310" y="290" as="targetPoint" />
          </mxGeometry>
        </mxCell>
        <mxCell id="zL9jQ1dmmv_QfP8523OB-4" value="成本预算" style="text;html=1;strokeColor=none;fillColor=none;align=center;verticalAlign=middle;whiteSpace=wrap;rounded=0;" vertex="1" parent="1">
          <mxGeometry x="330" y="280" width="60" height="30" as="geometry" />
        </mxCell>
        <mxCell id="zL9jQ1dmmv_QfP8523OB-5" value="实际费用" style="text;html=1;strokeColor=none;fillColor=none;align=center;verticalAlign=middle;whiteSpace=wrap;rounded=0;" vertex="1" parent="1">
          <mxGeometry x="330" y="320" width="60" height="30" as="geometry" />
        </mxCell>
        <mxCell id="zL9jQ1dmmv_QfP8523OB-6" value="成本预测" style="text;html=1;strokeColor=none;fillColor=none;align=center;verticalAlign=middle;whiteSpace=wrap;rounded=0;" vertex="1" parent="1">
          <mxGeometry x="330" y="360" width="60" height="30" as="geometry" />
        </mxCell>
      </root>
    </mxGraphModel>
  </diagram>
</mxfile>
